<svg id="visual" viewBox="0 0 2560 1440" width="2560" height="1440" xmlns="http://www.w3.org/2000/svg" xmlns:xlink="http://www.w3.org/1999/xlink" version="1.1"><path d="M0 73L28.5 80.2C57 87.3 114 101.7 170.8 104C227.7 106.3 284.3 96.7 341.2 94.3C398 92 455 97 512 99.5C569 102 626 102 682.8 99.5C739.7 97 796.3 92 853.2 89.5C910 87 967 87 1024 84.7C1081 82.3 1138 77.7 1194.8 80.2C1251.7 82.7 1308.3 92.3 1365.2 99.5C1422 106.7 1479 111.3 1536 113.7C1593 116 1650 116 1706.8 113.7C1763.7 111.3 1820.3 106.7 1877.2 106.7C1934 106.7 1991 111.3 2048 111.3C2105 111.3 2162 106.7 2218.8 99.5C2275.7 92.3 2332.3 82.7 2389.2 80.2C2446 77.7 2503 82.3 2531.5 84.7L2560 87L2560 0L2531.5 0C2503 0 2446 0 2389.2 0C2332.3 0 2275.7 0 2218.8 0C2162 0 2105 0 2048 0C1991 0 1934 0 1877.2 0C1820.3 0 1763.7 0 1706.8 0C1650 0 1593 0 1536 0C1479 0 1422 0 1365.2 0C1308.3 0 1251.7 0 1194.8 0C1138 0 1081 0 1024 0C967 0 910 0 853.2 0C796.3 0 739.7 0 682.8 0C626 0 569 0 512 0C455 0 398 0 341.2 0C284.3 0 227.7 0 170.8 0C114 0 57 0 28.5 0L0 0Z" fill="#e0a64a"></path><path d="M0 375L28.5 377.5C57 380 114 385 170.8 399.5C227.7 414 284.3 438 341.2 435.5C398 433 455 404 512 392C569 380 626 385 682.8 392.3C739.7 399.7 796.3 409.3 853.2 416.5C910 423.7 967 428.3 1024 423.5C1081 418.7 1138 404.3 1194.8 392.3C1251.7 380.3 1308.3 370.7 1365.2 368.2C1422 365.7 1479 370.3 1536 372.7C1593 375 1650 375 1706.8 387C1763.7 399 1820.3 423 1877.2 432.7C1934 442.3 1991 437.7 2048 433C2105 428.3 2162 423.7 2218.8 423.7C2275.7 423.7 2332.3 428.3 2389.2 421C2446 413.7 2503 394.3 2531.5 384.7L2560 375L2560 85L2531.5 82.7C2503 80.3 2446 75.7 2389.2 78.2C2332.3 80.7 2275.7 90.3 2218.8 97.5C2162 104.7 2105 109.3 2048 109.3C1991 109.3 1934 104.7 1877.2 104.7C1820.3 104.7 1763.7 109.3 1706.8 111.7C1650 114 1593 114 1536 111.7C1479 109.3 1422 104.7 1365.2 97.5C1308.3 90.3 1251.7 80.7 1194.8 78.2C1138 75.7 1081 80.3 1024 82.7C967 85 910 85 853.2 87.5C796.3 90 739.7 95 682.8 97.5C626 100 569 100 512 97.5C455 95 398 90 341.2 92.3C284.3 94.7 227.7 104.3 170.8 102C114 99.7 57 85.3 28.5 78.2L0 71Z" fill="#dda040"></path><path d="M0 476L28.5 478.5C57 481 114 486 170.8 502.8C227.7 519.7 284.3 548.3 341.2 541C398 533.7 455 490.3 512 476C569 461.7 626 476.3 682.8 493.2C739.7 510 796.3 529 853.2 538.5C910 548 967 548 1024 536C1081 524 1138 500 1194.8 490.5C1251.7 481 1308.3 486 1365.2 486C1422 486 1479 481 1536 483.3C1593 485.7 1650 495.3 1706.8 502.5C1763.7 509.7 1820.3 514.3 1877.2 521.5C1934 528.7 1991 538.3 2048 536C2105 533.7 2162 519.3 2218.8 517C2275.7 514.7 2332.3 524.3 2389.2 514.7C2446 505 2503 476 2531.5 461.5L2560 447L2560 373L2531.5 382.7C2503 392.3 2446 411.7 2389.2 419C2332.3 426.3 2275.7 421.7 2218.8 421.7C2162 421.7 2105 426.3 2048 431C1991 435.7 1934 440.3 1877.2 430.7C1820.3 421 1763.7 397 1706.8 385C1650 373 1593 373 1536 370.7C1479 368.3 1422 363.7 1365.2 366.2C1308.3 368.7 1251.7 378.3 1194.8 390.3C1138 402.3 1081 416.7 1024 421.5C967 426.3 910 421.7 853.2 414.5C796.3 407.3 739.7 397.7 682.8 390.3C626 383 569 378 512 390C455 402 398 431 341.2 433.5C284.3 436 227.7 412 170.8 397.5C114 383 57 378 28.5 375.5L0 373Z" fill="#da9a35"></path><path d="M0 519L28.5 521.5C57 524 114 529 170.8 548.3C227.7 567.7 284.3 601.3 341.2 596.5C398 591.7 455 548.3 512 533.8C569 519.3 626 533.7 682.8 548C739.7 562.3 796.3 576.7 853.2 583.8C910 591 967 591 1024 579C1081 567 1138 543 1194.8 535.8C1251.7 528.7 1308.3 538.3 1365.2 538.3C1422 538.3 1479 528.7 1536 528.7C1593 528.7 1650 538.3 1706.8 548C1763.7 557.7 1820.3 567.3 1877.2 574.5C1934 581.7 1991 586.3 2048 584C2105 581.7 2162 572.3 2218.8 572.3C2275.7 572.3 2332.3 581.7 2389.2 572C2446 562.3 2503 533.7 2531.5 519.3L2560 505L2560 445L2531.5 459.5C2503 474 2446 503 2389.2 512.7C2332.3 522.3 2275.7 512.7 2218.8 515C2162 517.3 2105 531.7 2048 534C1991 536.3 1934 526.7 1877.2 519.5C1820.3 512.3 1763.7 507.7 1706.8 500.5C1650 493.3 1593 483.7 1536 481.3C1479 479 1422 484 1365.2 484C1308.3 484 1251.7 479 1194.8 488.5C1138 498 1081 522 1024 534C967 546 910 546 853.2 536.5C796.3 527 739.7 508 682.8 491.2C626 474.3 569 459.7 512 474C455 488.3 398 531.7 341.2 539C284.3 546.3 227.7 517.7 170.8 500.8C114 484 57 479 28.5 476.5L0 474Z" fill="#d7942a"></path><path d="M0 678L28.5 673.2C57 668.3 114 658.7 170.8 665.8C227.7 673 284.3 697 341.2 701.8C398 706.7 455 692.3 512 685.2C569 678 626 678 682.8 682.8C739.7 687.7 796.3 697.3 853.2 699.7C910 702 967 697 1024 682.5C1081 668 1138 644 1194.8 646.5C1251.7 649 1308.3 678 1365.2 690C1422 702 1479 697 1536 689.7C1593 682.3 1650 672.7 1706.8 677.5C1763.7 682.3 1820.3 701.7 1877.2 706.5C1934 711.3 1991 701.7 2048 696.8C2105 692 2162 692 2218.8 696.8C2275.7 701.7 2332.3 711.3 2389.2 706.5C2446 701.7 2503 682.3 2531.5 672.7L2560 663L2560 503L2531.5 517.3C2503 531.7 2446 560.3 2389.2 570C2332.3 579.7 2275.7 570.3 2218.8 570.3C2162 570.3 2105 579.7 2048 582C1991 584.3 1934 579.7 1877.2 572.5C1820.3 565.3 1763.7 555.7 1706.8 546C1650 536.3 1593 526.7 1536 526.7C1479 526.7 1422 536.3 1365.2 536.3C1308.3 536.3 1251.7 526.7 1194.8 533.8C1138 541 1081 565 1024 577C967 589 910 589 853.2 581.8C796.3 574.7 739.7 560.3 682.8 546C626 531.7 569 517.3 512 531.8C455 546.3 398 589.7 341.2 594.5C284.3 599.3 227.7 565.7 170.8 546.3C114 527 57 522 28.5 519.5L0 517Z" fill="#d48e1d"></path><path d="M0 951L28.5 951C57 951 114 951 170.8 948.7C227.7 946.3 284.3 941.7 341.2 934.5C398 927.3 455 917.7 512 910.5C569 903.3 626 898.7 682.8 908.3C739.7 918 796.3 942 853.2 937.2C910 932.3 967 898.7 1024 879.5C1081 860.3 1138 855.7 1194.8 882C1251.7 908.3 1308.3 965.7 1365.2 984.8C1422 1004 1479 985 1536 980.3C1593 975.7 1650 985.3 1706.8 982.8C1763.7 980.3 1820.3 965.7 1877.2 958.3C1934 951 1991 951 2048 955.8C2105 960.7 2162 970.3 2218.8 965.7C2275.7 961 2332.3 942 2389.2 944.5C2446 947 2503 971 2531.5 983L2560 995L2560 661L2531.5 670.7C2503 680.3 2446 699.7 2389.2 704.5C2332.3 709.3 2275.7 699.7 2218.8 694.8C2162 690 2105 690 2048 694.8C1991 699.7 1934 709.3 1877.2 704.5C1820.3 699.7 1763.7 680.3 1706.8 675.5C1650 670.7 1593 680.3 1536 687.7C1479 695 1422 700 1365.2 688C1308.3 676 1251.7 647 1194.8 644.5C1138 642 1081 666 1024 680.5C967 695 910 700 853.2 697.7C796.3 695.3 739.7 685.7 682.8 680.8C626 676 569 676 512 683.2C455 690.3 398 704.7 341.2 699.8C284.3 695 227.7 671 170.8 663.8C114 656.7 57 666.3 28.5 671.2L0 676Z" fill="#d1880c"></path><path d="M0 995L28.5 997.3C57 999.7 114 1004.3 170.8 1006.7C227.7 1009 284.3 1009 341.2 999.3C398 989.7 455 970.3 512 958.3C569 946.3 626 941.7 682.8 956.2C739.7 970.7 796.3 1004.3 853.2 999.5C910 994.7 967 951.3 1024 932.2C1081 913 1138 918 1194.8 944.5C1251.7 971 1308.3 1019 1365.2 1033.3C1422 1047.7 1479 1028.3 1536 1025.8C1593 1023.3 1650 1037.7 1706.8 1040C1763.7 1042.3 1820.3 1032.7 1877.2 1023.2C1934 1013.7 1991 1004.3 2048 1009.2C2105 1014 2162 1033 2218.8 1030.5C2275.7 1028 2332.3 1004 2389.2 1006.5C2446 1009 2503 1038 2531.5 1052.5L2560 1067L2560 993L2531.5 981C2503 969 2446 945 2389.2 942.5C2332.3 940 2275.7 959 2218.8 963.7C2162 968.3 2105 958.7 2048 953.8C1991 949 1934 949 1877.2 956.3C1820.3 963.7 1763.7 978.3 1706.8 980.8C1650 983.3 1593 973.7 1536 978.3C1479 983 1422 1002 1365.2 982.8C1308.3 963.7 1251.7 906.3 1194.8 880C1138 853.7 1081 858.3 1024 877.5C967 896.7 910 930.3 853.2 935.2C796.3 940 739.7 916 682.8 906.3C626 896.7 569 901.3 512 908.5C455 915.7 398 925.3 341.2 932.5C284.3 939.7 227.7 944.3 170.8 946.7C114 949 57 949 28.5 949L0 949Z" fill="#cb8201"></path><path d="M0 1095L28.5 1095C57 1095 114 1095 170.8 1095C227.7 1095 284.3 1095 341.2 1087.8C398 1080.7 455 1066.3 512 1052C569 1037.7 626 1023.3 682.8 1030.5C739.7 1037.7 796.3 1066.3 853.2 1064C910 1061.7 967 1028.3 1024 1014C1081 999.7 1138 1004.3 1194.8 1028.3C1251.7 1052.3 1308.3 1095.7 1365.2 1110C1422 1124.3 1479 1109.7 1536 1104.8C1593 1100 1650 1105 1706.8 1109.8C1763.7 1114.7 1820.3 1119.3 1877.2 1109.7C1934 1100 1991 1076 2048 1076C2105 1076 2162 1100 2218.8 1097.7C2275.7 1095.3 2332.3 1066.7 2389.2 1069.2C2446 1071.7 2503 1105.3 2531.5 1122.2L2560 1139L2560 1065L2531.5 1050.5C2503 1036 2446 1007 2389.2 1004.5C2332.3 1002 2275.7 1026 2218.8 1028.5C2162 1031 2105 1012 2048 1007.2C1991 1002.3 1934 1011.7 1877.2 1021.2C1820.3 1030.7 1763.7 1040.3 1706.8 1038C1650 1035.7 1593 1021.3 1536 1023.8C1479 1026.3 1422 1045.7 1365.2 1031.3C1308.3 1017 1251.7 969 1194.8 942.5C1138 916 1081 911 1024 930.2C967 949.3 910 992.7 853.2 997.5C796.3 1002.3 739.7 968.7 682.8 954.2C626 939.7 569 944.3 512 956.3C455 968.3 398 987.7 341.2 997.3C284.3 1007 227.7 1007 170.8 1004.7C114 1002.3 57 997.7 28.5 995.3L0 993Z" fill="#c07b02"></path><path d="M0 1182L28.5 1179.5C57 1177 114 1172 170.8 1167.2C227.7 1162.3 284.3 1157.7 341.2 1150.5C398 1143.3 455 1133.7 512 1124C569 1114.3 626 1104.7 682.8 1114.3C739.7 1124 796.3 1153 853.2 1150.7C910 1148.3 967 1114.7 1024 1100.2C1081 1085.7 1138 1090.3 1194.8 1112C1251.7 1133.7 1308.3 1172.3 1365.2 1184.3C1422 1196.3 1479 1181.7 1536 1176.8C1593 1172 1650 1177 1706.8 1179.5C1763.7 1182 1820.3 1182 1877.2 1170C1934 1158 1991 1134 2048 1136.3C2105 1138.7 2162 1167.3 2218.8 1167.3C2275.7 1167.3 2332.3 1138.7 2389.2 1138.7C2446 1138.7 2503 1167.3 2531.5 1181.7L2560 1196L2560 1137L2531.5 1120.2C2503 1103.3 2446 1069.7 2389.2 1067.2C2332.3 1064.7 2275.7 1093.3 2218.8 1095.7C2162 1098 2105 1074 2048 1074C1991 1074 1934 1098 1877.2 1107.7C1820.3 1117.3 1763.7 1112.7 1706.8 1107.8C1650 1103 1593 1098 1536 1102.8C1479 1107.7 1422 1122.3 1365.2 1108C1308.3 1093.7 1251.7 1050.3 1194.8 1026.3C1138 1002.3 1081 997.7 1024 1012C967 1026.3 910 1059.7 853.2 1062C796.3 1064.3 739.7 1035.7 682.8 1028.5C626 1021.3 569 1035.7 512 1050C455 1064.3 398 1078.7 341.2 1085.8C284.3 1093 227.7 1093 170.8 1093C114 1093 57 1093 28.5 1093L0 1093Z" fill="#b67503"></path><path d="M0 1254L28.5 1251.5C57 1249 114 1244 170.8 1239.2C227.7 1234.3 284.3 1229.7 341.2 1217.7C398 1205.7 455 1186.3 512 1174.3C569 1162.3 626 1157.7 682.8 1167.3C739.7 1177 796.3 1201 853.2 1201C910 1201 967 1177 1024 1165C1081 1153 1138 1153 1194.8 1174.7C1251.7 1196.3 1308.3 1239.7 1365.2 1249.3C1422 1259 1479 1235 1536 1227.7C1593 1220.3 1650 1229.7 1706.8 1236.8C1763.7 1244 1820.3 1249 1877.2 1239.5C1934 1230 1991 1206 2048 1206C2105 1206 2162 1230 2218.8 1227.5C2275.7 1225 2332.3 1196 2389.2 1193.5C2446 1191 2503 1215 2531.5 1227L2560 1239L2560 1194L2531.5 1179.7C2503 1165.3 2446 1136.7 2389.2 1136.7C2332.3 1136.7 2275.7 1165.3 2218.8 1165.3C2162 1165.3 2105 1136.7 2048 1134.3C1991 1132 1934 1156 1877.2 1168C1820.3 1180 1763.7 1180 1706.8 1177.5C1650 1175 1593 1170 1536 1174.8C1479 1179.7 1422 1194.3 1365.2 1182.3C1308.3 1170.3 1251.7 1131.7 1194.8 1110C1138 1088.3 1081 1083.7 1024 1098.2C967 1112.7 910 1146.3 853.2 1148.7C796.3 1151 739.7 1122 682.8 1112.3C626 1102.7 569 1112.3 512 1122C455 1131.7 398 1141.3 341.2 1148.5C284.3 1155.7 227.7 1160.3 170.8 1165.2C114 1170 57 1175 28.5 1177.5L0 1180Z" fill="#ab6f04"></path><path d="M0 1398L28.5 1393.2C57 1388.3 114 1378.7 170.8 1373.8C227.7 1369 284.3 1369 341.2 1366.7C398 1364.3 455 1359.7 512 1357.3C569 1355 626 1355 682.8 1355C739.7 1355 796.3 1355 853.2 1355C910 1355 967 1355 1024 1355C1081 1355 1138 1355 1194.8 1362.2C1251.7 1369.3 1308.3 1383.7 1365.2 1386C1422 1388.3 1479 1378.7 1536 1373.8C1593 1369 1650 1369 1706.8 1371.3C1763.7 1373.7 1820.3 1378.3 1877.2 1376C1934 1373.7 1991 1364.3 2048 1362C2105 1359.7 2162 1364.3 2218.8 1366.7C2275.7 1369 2332.3 1369 2389.2 1369C2446 1369 2503 1369 2531.5 1369L2560 1369L2560 1237L2531.5 1225C2503 1213 2446 1189 2389.2 1191.5C2332.3 1194 2275.7 1223 2218.8 1225.5C2162 1228 2105 1204 2048 1204C1991 1204 1934 1228 1877.2 1237.5C1820.3 1247 1763.7 1242 1706.8 1234.8C1650 1227.7 1593 1218.3 1536 1225.7C1479 1233 1422 1257 1365.2 1247.3C1308.3 1237.7 1251.7 1194.3 1194.8 1172.7C1138 1151 1081 1151 1024 1163C967 1175 910 1199 853.2 1199C796.3 1199 739.7 1175 682.8 1165.3C626 1155.7 569 1160.3 512 1172.3C455 1184.3 398 1203.7 341.2 1215.7C284.3 1227.7 227.7 1232.3 170.8 1237.2C114 1242 57 1247 28.5 1249.5L0 1252Z" fill="#a16805"></path><path d="M0 1441L28.5 1441C57 1441 114 1441 170.8 1441C227.7 1441 284.3 1441 341.2 1441C398 1441 455 1441 512 1441C569 1441 626 1441 682.8 1441C739.7 1441 796.3 1441 853.2 1441C910 1441 967 1441 1024 1441C1081 1441 1138 1441 1194.8 1441C1251.7 1441 1308.3 1441 1365.2 1441C1422 1441 1479 1441 1536 1441C1593 1441 1650 1441 1706.8 1441C1763.7 1441 1820.3 1441 1877.2 1441C1934 1441 1991 1441 2048 1441C2105 1441 2162 1441 2218.8 1441C2275.7 1441 2332.3 1441 2389.2 1441C2446 1441 2503 1441 2531.5 1441L2560 1441L2560 1367L2531.5 1367C2503 1367 2446 1367 2389.2 1367C2332.3 1367 2275.7 1367 2218.8 1364.7C2162 1362.3 2105 1357.7 2048 1360C1991 1362.3 1934 1371.7 1877.2 1374C1820.3 1376.3 1763.7 1371.7 1706.8 1369.3C1650 1367 1593 1367 1536 1371.8C1479 1376.7 1422 1386.3 1365.2 1384C1308.3 1381.7 1251.7 1367.3 1194.8 1360.2C1138 1353 1081 1353 1024 1353C967 1353 910 1353 853.2 1353C796.3 1353 739.7 1353 682.8 1353C626 1353 569 1353 512 1355.3C455 1357.7 398 1362.3 341.2 1364.7C284.3 1367 227.7 1367 170.8 1371.8C114 1376.7 57 1386.3 28.5 1391.2L0 1396Z" fill="#976206"></path></svg>