<svg id="visual" viewBox="0 0 900 600" width="900" height="600" xmlns="http://www.w3.org/2000/svg" xmlns:xlink="http://www.w3.org/1999/xlink" version="1.1"><rect x="0" y="0" width="900" height="600" fill="#2563eb"></rect><defs><linearGradient id="grad1_0" x1="33.3%" y1="0%" x2="100%" y2="100%"><stop offset="20%" stop-color="#10b981" stop-opacity="1"></stop><stop offset="80%" stop-color="#10b981" stop-opacity="1"></stop></linearGradient></defs><defs><linearGradient id="grad1_1" x1="33.3%" y1="0%" x2="100%" y2="100%"><stop offset="20%" stop-color="#10b981" stop-opacity="1"></stop><stop offset="80%" stop-color="#00b39e" stop-opacity="1"></stop></linearGradient></defs><defs><linearGradient id="grad1_2" x1="33.3%" y1="0%" x2="100%" y2="100%"><stop offset="20%" stop-color="#00aabe" stop-opacity="1"></stop><stop offset="80%" stop-color="#00b39e" stop-opacity="1"></stop></linearGradient></defs><defs><linearGradient id="grad1_3" x1="33.3%" y1="0%" x2="100%" y2="100%"><stop offset="20%" stop-color="#00aabe" stop-opacity="1"></stop><stop offset="80%" stop-color="#009fdd" stop-opacity="1"></stop></linearGradient></defs><defs><linearGradient id="grad1_4" x1="33.3%" y1="0%" x2="100%" y2="100%"><stop offset="20%" stop-color="#0091f2" stop-opacity="1"></stop><stop offset="80%" stop-color="#009fdd" stop-opacity="1"></stop></linearGradient></defs><defs><linearGradient id="grad1_5" x1="33.3%" y1="0%" x2="100%" y2="100%"><stop offset="20%" stop-color="#0091f2" stop-opacity="1"></stop><stop offset="80%" stop-color="#007ef8" stop-opacity="1"></stop></linearGradient></defs><defs><linearGradient id="grad1_6" x1="33.3%" y1="0%" x2="100%" y2="100%"><stop offset="20%" stop-color="#2563eb" stop-opacity="1"></stop><stop offset="80%" stop-color="#007ef8" stop-opacity="1"></stop></linearGradient></defs><defs><linearGradient id="grad2_0" x1="0%" y1="0%" x2="66.7%" y2="100%"><stop offset="20%" stop-color="#10b981" stop-opacity="1"></stop><stop offset="80%" stop-color="#10b981" stop-opacity="1"></stop></linearGradient></defs><defs><linearGradient id="grad2_1" x1="0%" y1="0%" x2="66.7%" y2="100%"><stop offset="20%" stop-color="#00b39e" stop-opacity="1"></stop><stop offset="80%" stop-color="#10b981" stop-opacity="1"></stop></linearGradient></defs><defs><linearGradient id="grad2_2" x1="0%" y1="0%" x2="66.7%" y2="100%"><stop offset="20%" stop-color="#00b39e" stop-opacity="1"></stop><stop offset="80%" stop-color="#00aabe" stop-opacity="1"></stop></linearGradient></defs><defs><linearGradient id="grad2_3" x1="0%" y1="0%" x2="66.7%" y2="100%"><stop offset="20%" stop-color="#009fdd" stop-opacity="1"></stop><stop offset="80%" stop-color="#00aabe" stop-opacity="1"></stop></linearGradient></defs><defs><linearGradient id="grad2_4" x1="0%" y1="0%" x2="66.7%" y2="100%"><stop offset="20%" stop-color="#009fdd" stop-opacity="1"></stop><stop offset="80%" stop-color="#0091f2" stop-opacity="1"></stop></linearGradient></defs><defs><linearGradient id="grad2_5" x1="0%" y1="0%" x2="66.7%" y2="100%"><stop offset="20%" stop-color="#007ef8" stop-opacity="1"></stop><stop offset="80%" stop-color="#0091f2" stop-opacity="1"></stop></linearGradient></defs><defs><linearGradient id="grad2_6" x1="0%" y1="0%" x2="66.7%" y2="100%"><stop offset="20%" stop-color="#007ef8" stop-opacity="1"></stop><stop offset="80%" stop-color="#2563eb" stop-opacity="1"></stop></linearGradient></defs><g transform="translate(900, 0)"><path d="M0 459.7C-52.6 462.3 -105.1 464.9 -142.1 437.2C-179 409.5 -200.3 351.4 -227.5 313.1C-254.6 274.7 -287.6 256.1 -314.7 228.6C-341.8 201.2 -362.9 165 -386.1 125.5C-409.3 85.9 -434.5 42.9 -459.7 0L0 0Z" fill="#0072f4"></path><path d="M0 394C-45.1 396.3 -90.1 398.5 -121.8 374.7C-153.4 351 -171.7 301.2 -195 268.4C-218.3 235.5 -246.5 219.5 -269.7 196C-293 172.5 -311.1 141.5 -331 107.5C-350.8 73.6 -372.4 36.8 -394 0L0 0Z" fill="#0088f8"></path><path d="M0 328.4C-37.5 330.2 -75.1 332.1 -101.5 312.3C-127.9 292.5 -143.1 251 -162.5 223.6C-181.9 196.2 -205.4 182.9 -224.8 163.3C-244.1 143.7 -259.2 117.9 -275.8 89.6C-292.4 61.4 -310.4 30.7 -328.4 0L0 0Z" fill="#0099e9"></path><path d="M0 262.7C-30 264.2 -60.1 265.7 -81.2 249.8C-102.3 234 -114.5 200.8 -130 178.9C-145.5 157 -164.4 146.3 -179.8 130.7C-195.3 115 -207.4 94.3 -220.6 71.7C-233.9 49.1 -248.3 24.5 -262.7 0L0 0Z" fill="#00a5ce"></path><path d="M0 197C-22.5 198.1 -45.1 199.3 -60.9 187.4C-76.7 175.5 -85.8 150.6 -97.5 134.2C-109.1 117.7 -123.3 109.7 -134.9 98C-146.5 86.2 -155.5 70.7 -165.5 53.8C-175.4 36.8 -186.2 18.4 -197 0L0 0Z" fill="#00afae"></path><path d="M0 131.3C-15 132.1 -30 132.8 -40.6 124.9C-51.1 117 -57.2 100.4 -65 89.5C-72.8 78.5 -82.2 73.2 -89.9 65.3C-97.7 57.5 -103.7 47.2 -110.3 35.8C-116.9 24.5 -124.1 12.3 -131.3 0L0 0Z" fill="#00b68f"></path><path d="M0 65.7C-7.5 66 -15 66.4 -20.3 62.5C-25.6 58.5 -28.6 50.2 -32.5 44.7C-36.4 39.2 -41.1 36.6 -45 32.7C-48.8 28.7 -51.8 23.6 -55.2 17.9C-58.5 12.3 -62.1 6.1 -65.7 0L0 0Z" fill="#10b981"></path></g><g transform="translate(0, 600)"><path d="M0 -459.7C38.3 -422.2 76.6 -384.7 119 -366.2C161.4 -347.7 207.9 -348.2 236.9 -326C265.9 -303.9 277.4 -259 313.1 -227.5C348.8 -195.9 408.7 -177.7 437.2 -142.1C465.7 -106.4 462.7 -53.2 459.7 0L0 0Z" fill="#0072f4"></path><path d="M0 -394C32.8 -361.9 65.6 -329.7 102 -313.8C138.3 -298 178.2 -298.5 203 -279.5C227.9 -260.5 237.8 -222 268.4 -195C299 -168 350.3 -152.4 374.7 -121.8C399.2 -91.2 396.6 -45.6 394 0L0 0Z" fill="#0088f8"></path><path d="M0 -328.4C27.3 -301.6 54.7 -274.8 85 -261.5C115.3 -248.3 148.5 -248.7 169.2 -232.9C189.9 -217 198.1 -185 223.6 -162.5C249.1 -140 292 -127 312.3 -101.5C332.6 -76 330.5 -38 328.4 0L0 0Z" fill="#0099e9"></path><path d="M0 -262.7C21.9 -241.2 43.8 -219.8 68 -209.2C92.2 -198.7 118.8 -199 135.4 -186.3C151.9 -173.6 158.5 -148 178.9 -130C199.3 -112 233.6 -101.6 249.8 -81.2C266.1 -60.8 264.4 -30.4 262.7 0L0 0Z" fill="#00a5ce"></path><path d="M0 -197C16.4 -180.9 32.8 -164.9 51 -156.9C69.2 -149 89.1 -149.2 101.5 -139.7C113.9 -130.2 118.9 -111 134.2 -97.5C149.5 -84 175.2 -76.2 187.4 -60.9C199.6 -45.6 198.3 -22.8 197 0L0 0Z" fill="#00afae"></path><path d="M0 -131.3C10.9 -120.6 21.9 -109.9 34 -104.6C46.1 -99.3 59.4 -99.5 67.7 -93.2C76 -86.8 79.3 -74 89.5 -65C99.7 -56 116.8 -50.8 124.9 -40.6C133.1 -30.4 132.2 -15.2 131.3 0L0 0Z" fill="#00b68f"></path><path d="M0 -65.7C5.5 -60.3 10.9 -55 17 -52.3C23.1 -49.7 29.7 -49.7 33.8 -46.6C38 -43.4 39.6 -37 44.7 -32.5C49.8 -28 58.4 -25.4 62.5 -20.3C66.5 -15.2 66.1 -7.6 65.7 0L0 0Z" fill="#10b981"></path></g></svg>