<svg id="visual" viewBox="0 0 2560 1440" width="2560" height="1440" xmlns="http://www.w3.org/2000/svg" xmlns:xlink="http://www.w3.org/1999/xlink" version="1.1"><path d="M0 102L512 87L1024 87L1536 87L2048 87L2560 102L2560 0L2048 0L1536 0L1024 0L512 0L0 0Z" fill="#00cc8e"></path><path d="M0 275L512 217L1024 231L1536 246L2048 260L2560 217L2560 100L2048 85L1536 85L1024 85L512 85L0 100Z" fill="#00c08c"></path><path d="M0 375L512 361L1024 390L1536 361L2048 347L2560 375L2560 215L2048 258L1536 244L1024 229L512 215L0 273Z" fill="#00b388"></path><path d="M0 591L512 505L1024 563L1536 505L2048 548L2560 491L2560 373L2048 345L1536 359L1024 388L512 359L0 373Z" fill="#00a784"></path><path d="M0 980L512 779L1024 865L1536 851L2048 894L2560 779L2560 489L2048 546L1536 503L1024 561L512 503L0 589Z" fill="#009b7f"></path><path d="M0 1167L512 1009L1024 1023L1536 1038L2048 1167L2560 995L2560 777L2048 892L1536 849L1024 863L512 777L0 978Z" fill="#008f79"></path><path d="M0 1441L512 1441L1024 1441L1536 1441L2048 1441L2560 1441L2560 993L2048 1165L1536 1036L1024 1021L512 1007L0 1165Z" fill="#038373"></path></svg>